<svg width="100" height="98" viewBox="0 0 100 98" fill="none" xmlns="http://www.w3.org/2000/svg">
<path d="M97 48.7805C97 73.9949 76.0276 94.561 50 94.561C23.9724 94.561 3 73.9949 3 48.7805C3 23.566 23.9724 3 50 3C76.0276 3 97 23.566 97 48.7805Z" stroke="#FFB700" stroke-width="6"/>
<path d="M26.864 57V55.176L32.792 49.128C34.376 47.544 35.168 46.184 35.168 45.048C35.168 44.104 34.88 43.368 34.304 42.84C33.728 42.312 33.024 42.048 32.192 42.048C30.608 42.048 29.456 42.8 28.736 44.304L26.864 43.2C27.392 42.112 28.12 41.288 29.048 40.728C29.992 40.168 31.032 39.888 32.168 39.888C33.576 39.888 34.8 40.352 35.84 41.28C36.88 42.208 37.4 43.456 37.4 45.024C37.4 46.72 36.4 48.568 34.4 50.568L30.104 54.84H37.712V57H26.864ZM50.7579 54.936C49.6219 56.52 48.0299 57.312 45.9819 57.312C43.9339 57.312 42.3419 56.52 41.2059 54.936C40.0699 53.352 39.5019 51.24 39.5019 48.6C39.5019 45.96 40.0699 43.848 41.2059 42.264C42.3419 40.68 43.9339 39.888 45.9819 39.888C48.0299 39.888 49.6219 40.68 50.7579 42.264C51.8939 43.848 52.4619 45.96 52.4619 48.6C52.4619 51.24 51.8939 53.352 50.7579 54.936ZM42.8379 53.424C43.5739 54.56 44.6219 55.128 45.9819 55.128C47.3419 55.128 48.3899 54.56 49.1259 53.424C49.8779 52.288 50.2539 50.68 50.2539 48.6C50.2539 46.52 49.8779 44.912 49.1259 43.776C48.3899 42.624 47.3419 42.048 45.9819 42.048C44.6219 42.048 43.5739 42.616 42.8379 43.752C42.1019 44.888 41.7339 46.504 41.7339 48.6C41.7339 50.68 42.1019 52.288 42.8379 53.424ZM57.8223 40.2H59.7423V57H57.5343V42.6L53.9583 43.656L53.4063 41.736L57.8223 40.2ZM68.081 46.008C69.761 46.008 71.145 46.536 72.233 47.592C73.321 48.632 73.865 49.984 73.865 51.648C73.865 53.312 73.321 54.672 72.233 55.728C71.145 56.784 69.761 57.312 68.081 57.312C66.385 57.312 64.993 56.784 63.905 55.728C62.833 54.672 62.297 53.312 62.297 51.648C62.297 50.352 62.633 49.232 63.305 48.288L68.705 40.2H71.249L67.289 46.056C67.641 46.024 67.905 46.008 68.081 46.008ZM65.489 54.216C66.161 54.856 67.025 55.176 68.081 55.176C69.137 55.176 69.993 54.856 70.649 54.216C71.321 53.56 71.657 52.704 71.657 51.648C71.657 50.592 71.321 49.744 70.649 49.104C69.993 48.464 69.137 48.144 68.081 48.144C67.009 48.144 66.145 48.464 65.489 49.104C64.833 49.744 64.505 50.592 64.505 51.648C64.505 52.704 64.833 53.56 65.489 54.216Z" fill="white"/>
</svg>
