<svg width="100" height="98" viewBox="0 0 100 98" fill="none" xmlns="http://www.w3.org/2000/svg">
<path d="M97 48.7805C97 73.9949 76.0276 94.561 50 94.561C23.9724 94.561 3 73.9949 3 48.7805C3 23.566 23.9724 3 50 3C76.0276 3 97 23.566 97 48.7805Z" stroke="#FFB700" stroke-width="6"/>
<path d="M26.864 57V55.176L32.792 49.128C34.376 47.544 35.168 46.184 35.168 45.048C35.168 44.104 34.88 43.368 34.304 42.84C33.728 42.312 33.024 42.048 32.192 42.048C30.608 42.048 29.456 42.8 28.736 44.304L26.864 43.2C27.392 42.112 28.12 41.288 29.048 40.728C29.992 40.168 31.032 39.888 32.168 39.888C33.576 39.888 34.8 40.352 35.84 41.28C36.88 42.208 37.4 43.456 37.4 45.024C37.4 46.72 36.4 48.568 34.4 50.568L30.104 54.84H37.712V57H26.864ZM50.7579 54.936C49.6219 56.52 48.0299 57.312 45.9819 57.312C43.9339 57.312 42.3419 56.52 41.2059 54.936C40.0699 53.352 39.5019 51.24 39.5019 48.6C39.5019 45.96 40.0699 43.848 41.2059 42.264C42.3419 40.68 43.9339 39.888 45.9819 39.888C48.0299 39.888 49.6219 40.68 50.7579 42.264C51.8939 43.848 52.4619 45.96 52.4619 48.6C52.4619 51.24 51.8939 53.352 50.7579 54.936ZM42.8379 53.424C43.5739 54.56 44.6219 55.128 45.9819 55.128C47.3419 55.128 48.3899 54.56 49.1259 53.424C49.8779 52.288 50.2539 50.68 50.2539 48.6C50.2539 46.52 49.8779 44.912 49.1259 43.776C48.3899 42.624 47.3419 42.048 45.9819 42.048C44.6219 42.048 43.5739 42.616 42.8379 43.752C42.1019 44.888 41.7339 46.504 41.7339 48.6C41.7339 50.68 42.1019 52.288 42.8379 53.424ZM57.8223 40.2H59.7423V57H57.5343V42.6L53.9583 43.656L53.4063 41.736L57.8223 40.2ZM71.417 48.312C72.233 48.728 72.873 49.288 73.337 49.992C73.801 50.696 74.033 51.496 74.033 52.392C74.033 53.928 73.497 55.136 72.425 56.016C71.353 56.88 69.969 57.312 68.273 57.312C66.593 57.312 65.217 56.88 64.145 56.016C63.073 55.136 62.537 53.928 62.537 52.392C62.537 51.496 62.769 50.696 63.233 49.992C63.697 49.288 64.337 48.728 65.153 48.312C63.777 47.448 63.089 46.224 63.089 44.64C63.089 43.12 63.593 41.952 64.601 41.136C65.625 40.304 66.849 39.888 68.273 39.888C69.713 39.888 70.937 40.304 71.945 41.136C72.969 41.952 73.481 43.12 73.481 44.64C73.481 46.224 72.793 47.448 71.417 48.312ZM68.273 42.024C67.425 42.024 66.713 42.248 66.137 42.696C65.577 43.144 65.297 43.808 65.297 44.688C65.297 45.536 65.585 46.2 66.161 46.68C66.737 47.144 67.441 47.376 68.273 47.376C69.105 47.376 69.809 47.144 70.385 46.68C70.961 46.2 71.249 45.536 71.249 44.688C71.249 43.808 70.969 43.144 70.409 42.696C69.849 42.248 69.137 42.024 68.273 42.024ZM68.273 55.176C69.345 55.176 70.201 54.928 70.841 54.432C71.497 53.92 71.825 53.192 71.825 52.248C71.825 51.32 71.497 50.608 70.841 50.112C70.201 49.6 69.345 49.344 68.273 49.344C67.217 49.344 66.361 49.6 65.705 50.112C65.065 50.608 64.745 51.32 64.745 52.248C64.745 53.192 65.065 53.92 65.705 54.432C66.361 54.928 67.217 55.176 68.273 55.176Z" fill="white"/>
</svg>
