<svg width="100" height="98" viewBox="0 0 100 98" fill="none" xmlns="http://www.w3.org/2000/svg">
<path d="M97 48.7805C97 73.9949 76.0276 94.561 50 94.561C23.9724 94.561 3 73.9949 3 48.7805C3 23.566 23.9724 3 50 3C76.0276 3 97 23.566 97 48.7805Z" stroke="#FFB700" stroke-width="6"/>
<path d="M23.864 57V55.176L29.792 49.128C31.376 47.544 32.168 46.184 32.168 45.048C32.168 44.104 31.88 43.368 31.304 42.84C30.728 42.312 30.024 42.048 29.192 42.048C27.608 42.048 26.456 42.8 25.736 44.304L23.864 43.2C24.392 42.112 25.12 41.288 26.048 40.728C26.992 40.168 28.032 39.888 29.168 39.888C30.576 39.888 31.8 40.352 32.84 41.28C33.88 42.208 34.4 43.456 34.4 45.024C34.4 46.72 33.4 48.568 31.4 50.568L27.104 54.84H34.712V57H23.864ZM47.7579 54.936C46.6219 56.52 45.0299 57.312 42.9819 57.312C40.9339 57.312 39.3419 56.52 38.2059 54.936C37.0699 53.352 36.5019 51.24 36.5019 48.6C36.5019 45.96 37.0699 43.848 38.2059 42.264C39.3419 40.68 40.9339 39.888 42.9819 39.888C45.0299 39.888 46.6219 40.68 47.7579 42.264C48.8939 43.848 49.4619 45.96 49.4619 48.6C49.4619 51.24 48.8939 53.352 47.7579 54.936ZM39.8379 53.424C40.5739 54.56 41.6219 55.128 42.9819 55.128C44.3419 55.128 45.3899 54.56 46.1259 53.424C46.8779 52.288 47.2539 50.68 47.2539 48.6C47.2539 46.52 46.8779 44.912 46.1259 43.776C45.3899 42.624 44.3419 42.048 42.9819 42.048C41.6219 42.048 40.5739 42.616 39.8379 43.752C39.1019 44.888 38.7339 46.504 38.7339 48.6C38.7339 50.68 39.1019 52.288 39.8379 53.424ZM51.0984 57V55.176L57.0264 49.128C58.6104 47.544 59.4024 46.184 59.4024 45.048C59.4024 44.104 59.1144 43.368 58.5384 42.84C57.9624 42.312 57.2584 42.048 56.4264 42.048C54.8424 42.048 53.6904 42.8 52.9704 44.304L51.0984 43.2C51.6264 42.112 52.3544 41.288 53.2824 40.728C54.2264 40.168 55.2664 39.888 56.4024 39.888C57.8104 39.888 59.0344 40.352 60.0744 41.28C61.1144 42.208 61.6344 43.456 61.6344 45.024C61.6344 46.72 60.6344 48.568 58.6344 50.568L54.3384 54.84H61.9464V57H51.0984ZM74.9922 54.936C73.8563 56.52 72.2643 57.312 70.2163 57.312C68.1683 57.312 66.5763 56.52 65.4403 54.936C64.3043 53.352 63.7363 51.24 63.7363 48.6C63.7363 45.96 64.3043 43.848 65.4403 42.264C66.5763 40.68 68.1683 39.888 70.2163 39.888C72.2643 39.888 73.8563 40.68 74.9922 42.264C76.1283 43.848 76.6963 45.96 76.6963 48.6C76.6963 51.24 76.1283 53.352 74.9922 54.936ZM67.0723 53.424C67.8083 54.56 68.8563 55.128 70.2163 55.128C71.5763 55.128 72.6243 54.56 73.3603 53.424C74.1123 52.288 74.4883 50.68 74.4883 48.6C74.4883 46.52 74.1123 44.912 73.3603 43.776C72.6243 42.624 71.5763 42.048 70.2163 42.048C68.8563 42.048 67.8083 42.616 67.0723 43.752C66.3363 44.888 65.9683 46.504 65.9683 48.6C65.9683 50.68 66.3363 52.288 67.0723 53.424Z" fill="white"/>
</svg>
